<svg xmlns="http://www.w3.org/2000/svg" viewBox="0 0 319.26 133"><defs><style>.cls-1{opacity:0.45;}.cls-2{fill:#97c152;fill-rule:evenodd;}.cls-3{opacity:0.4;}</style></defs><title>wave</title><g id="Layer_2" data-name="Layer 2"><g id="Layer_1-2" data-name="Layer 1"><g id="Group-8" class="cls-1"><path class="cls-2" d="M319.26,49.07V87.84Q241.65,34.56,141,65.38,57.8,90.88,0,62.74V49.07A49.06,49.06,0,0,1,49.06,0H270.2a49,49,0,0,1,48.38,41A48.24,48.24,0,0,1,319.26,49.07Z"/></g><g id="dark-dashboard" class="cls-3"><g id="Group-8-2" data-name="Group-8"><path class="cls-2" d="M318.58,41Q218,10.92,129.34,82.54,63,136.15,0,132.8V49.07A49.06,49.06,0,0,1,49.06,0H270.2A49,49,0,0,1,318.58,41Z"/></g></g></g></g></svg>